<svg xmlns="http://www.w3.org/2000/svg" xmlns:xlink="http://www.w3.org/1999/xlink" width="500" zoomAndPan="magnify" viewBox="0 0 375 374.999991" height="500" preserveAspectRatio="xMidYMid meet" version="1.0"><defs><g/><clipPath id="3212fb5a75"><path d="M 109 131 L 160 131 L 160 184 L 109 184 Z M 109 131 " clip-rule="nonzero"/></clipPath><clipPath id="d874f822ef"><path d="M 104.917969 169.675781 L 137.929688 120.472656 L 170.316406 142.203125 L 137.304688 191.40625 Z M 104.917969 169.675781 " clip-rule="nonzero"/></clipPath><clipPath id="ca15abe2d9"><path d="M 104.917969 169.675781 L 137.929688 120.472656 L 170.316406 142.203125 L 137.304688 191.40625 Z M 104.917969 169.675781 " clip-rule="nonzero"/></clipPath><clipPath id="95adcac123"><path d="M 111 132 L 159 132 L 159 182 L 111 182 Z M 111 132 " clip-rule="nonzero"/></clipPath><clipPath id="94c5510dd5"><path d="M 104.917969 169.675781 L 137.929688 120.472656 L 170.316406 142.203125 L 137.304688 191.40625 Z M 104.917969 169.675781 " clip-rule="nonzero"/></clipPath><clipPath id="958c6f0e97"><path d="M 104.917969 169.675781 L 137.929688 120.472656 L 170.316406 142.203125 L 137.304688 191.40625 Z M 104.917969 169.675781 " clip-rule="nonzero"/></clipPath><clipPath id="99339b5480"><path d="M 115 169 L 126 169 L 126 175 L 115 175 Z M 115 169 " clip-rule="nonzero"/></clipPath><clipPath id="0dbe56f9c9"><path d="M 104.917969 169.675781 L 137.929688 120.472656 L 170.316406 142.203125 L 137.304688 191.40625 Z M 104.917969 169.675781 " clip-rule="nonzero"/></clipPath><clipPath id="7b4aec5a35"><path d="M 104.917969 169.675781 L 137.929688 120.472656 L 170.316406 142.203125 L 137.304688 191.40625 Z M 104.917969 169.675781 " clip-rule="nonzero"/></clipPath><clipPath id="6e1ab35c34"><path d="M 129 143 L 139 143 L 139 155 L 129 155 Z M 129 143 " clip-rule="nonzero"/></clipPath><clipPath id="554b416873"><path d="M 104.917969 169.675781 L 137.929688 120.472656 L 170.316406 142.203125 L 137.304688 191.40625 Z M 104.917969 169.675781 " clip-rule="nonzero"/></clipPath><clipPath id="22c87a7960"><path d="M 104.917969 169.675781 L 137.929688 120.472656 L 170.316406 142.203125 L 137.304688 191.40625 Z M 104.917969 169.675781 " clip-rule="nonzero"/></clipPath><clipPath id="5dd6cf1292"><path d="M 130 141 L 158 141 L 158 166 L 130 166 Z M 130 141 " clip-rule="nonzero"/></clipPath><clipPath id="55f1dcc9fa"><path d="M 104.917969 169.675781 L 137.929688 120.472656 L 170.316406 142.203125 L 137.304688 191.40625 Z M 104.917969 169.675781 " clip-rule="nonzero"/></clipPath><clipPath id="9da0885108"><path d="M 104.917969 169.675781 L 137.929688 120.472656 L 170.316406 142.203125 L 137.304688 191.40625 Z M 104.917969 169.675781 " clip-rule="nonzero"/></clipPath><clipPath id="4182bfc22e"><path d="M 122 151 L 135 151 L 135 157 L 122 157 Z M 122 151 " clip-rule="nonzero"/></clipPath><clipPath id="8e761b5e4e"><path d="M 104.917969 169.675781 L 137.929688 120.472656 L 170.316406 142.203125 L 137.304688 191.40625 Z M 104.917969 169.675781 " clip-rule="nonzero"/></clipPath><clipPath id="5dddfddd8e"><path d="M 104.917969 169.675781 L 137.929688 120.472656 L 170.316406 142.203125 L 137.304688 191.40625 Z M 104.917969 169.675781 " clip-rule="nonzero"/></clipPath><clipPath id="406ec44a59"><path d="M 148 152 L 152 152 L 152 157 L 148 157 Z M 148 152 " clip-rule="nonzero"/></clipPath><clipPath id="b3d1f9cd0d"><path d="M 104.917969 169.675781 L 137.929688 120.472656 L 170.316406 142.203125 L 137.304688 191.40625 Z M 104.917969 169.675781 " clip-rule="nonzero"/></clipPath><clipPath id="472985f3c6"><path d="M 104.917969 169.675781 L 137.929688 120.472656 L 170.316406 142.203125 L 137.304688 191.40625 Z M 104.917969 169.675781 " clip-rule="nonzero"/></clipPath><clipPath id="048e675057"><path d="M 136 144 L 153 144 L 153 159 L 136 159 Z M 136 144 " clip-rule="nonzero"/></clipPath><clipPath id="a157c39b34"><path d="M 104.917969 169.675781 L 137.929688 120.472656 L 170.316406 142.203125 L 137.304688 191.40625 Z M 104.917969 169.675781 " clip-rule="nonzero"/></clipPath><clipPath id="378a4ce355"><path d="M 104.917969 169.675781 L 137.929688 120.472656 L 170.316406 142.203125 L 137.304688 191.40625 Z M 104.917969 169.675781 " clip-rule="nonzero"/></clipPath><clipPath id="e455e1004e"><path d="M 129 157 L 142 157 L 142 166 L 129 166 Z M 129 157 " clip-rule="nonzero"/></clipPath><clipPath id="cdf2fed7df"><path d="M 104.917969 169.675781 L 137.929688 120.472656 L 170.316406 142.203125 L 137.304688 191.40625 Z M 104.917969 169.675781 " clip-rule="nonzero"/></clipPath><clipPath id="21998f1577"><path d="M 104.917969 169.675781 L 137.929688 120.472656 L 170.316406 142.203125 L 137.304688 191.40625 Z M 104.917969 169.675781 " clip-rule="nonzero"/></clipPath><clipPath id="a77f56ec72"><path d="M 121 170 L 127 170 L 127 174 L 121 174 Z M 121 170 " clip-rule="nonzero"/></clipPath><clipPath id="c2bd796ea1"><path d="M 104.917969 169.675781 L 137.929688 120.472656 L 170.316406 142.203125 L 137.304688 191.40625 Z M 104.917969 169.675781 " clip-rule="nonzero"/></clipPath><clipPath id="8064ce140e"><path d="M 104.917969 169.675781 L 137.929688 120.472656 L 170.316406 142.203125 L 137.304688 191.40625 Z M 104.917969 169.675781 " clip-rule="nonzero"/></clipPath></defs><g fill="#1b2123" fill-opacity="1"><g transform="translate(126.09864, 196.72065)"><g><path d="M 26.171875 -35.875 C 29.378906 -35.875 32.296875 -35.125 34.921875 -33.625 C 37.554688 -32.125 39.644531 -29.992188 41.1875 -27.234375 C 42.726562 -24.484375 43.5 -21.285156 43.5 -17.640625 C 43.5 -13.992188 42.726562 -10.789062 41.1875 -8.03125 C 39.644531 -5.28125 37.554688 -3.15625 34.921875 -1.65625 C 32.296875 -0.15625 29.378906 0.59375 26.171875 0.59375 C 22.046875 0.59375 18.769531 -0.644531 16.34375 -3.125 L 16.34375 12.625 L 3.96875 12.625 L 3.96875 -35.296875 L 15.75 -35.296875 L 15.75 -31.765625 C 18.050781 -34.503906 21.523438 -35.875 26.171875 -35.875 Z M 23.5625 -9.25 C 25.738281 -9.25 27.519531 -9.992188 28.90625 -11.484375 C 30.289062 -12.984375 30.984375 -15.035156 30.984375 -17.640625 C 30.984375 -20.242188 30.289062 -22.296875 28.90625 -23.796875 C 27.519531 -25.296875 25.738281 -26.046875 23.5625 -26.046875 C 21.394531 -26.046875 19.613281 -25.296875 18.21875 -23.796875 C 16.832031 -22.296875 16.140625 -20.242188 16.140625 -17.640625 C 16.140625 -15.035156 16.832031 -12.984375 18.21875 -11.484375 C 19.613281 -9.992188 21.394531 -9.25 23.5625 -9.25 Z M 23.5625 -9.25 "/></g></g></g><g fill="#1b2123" fill-opacity="1"><g transform="translate(166.393118, 196.72065)"><g><path d="M 3.96875 -48.3125 L 16.34375 -48.3125 L 16.34375 0 L 3.96875 0 Z M 3.96875 -48.3125 "/></g></g></g><g fill="#1b2123" fill-opacity="1"><g transform="translate(181.820331, 196.72065)"><g><path d="M 19.015625 -35.875 C 24.867188 -35.875 29.335938 -34.535156 32.421875 -31.859375 C 35.503906 -29.191406 37.046875 -25.101562 37.046875 -19.59375 L 37.046875 0 L 25.515625 0 L 25.515625 -4.5625 C 23.742188 -1.125 20.273438 0.59375 15.109375 0.59375 C 12.367188 0.59375 10 0.113281 8 -0.84375 C 6.007812 -1.800781 4.503906 -3.09375 3.484375 -4.71875 C 2.460938 -6.34375 1.953125 -8.195312 1.953125 -10.28125 C 1.953125 -13.625 3.234375 -16.21875 5.796875 -18.0625 C 8.359375 -19.90625 12.304688 -20.828125 17.640625 -20.828125 L 24.671875 -20.828125 C 24.453125 -24.566406 21.957031 -26.4375 17.1875 -26.4375 C 15.5 -26.4375 13.785156 -26.164062 12.046875 -25.625 C 10.304688 -25.082031 8.832031 -24.332031 7.625 -23.375 L 3.453125 -31.765625 C 5.398438 -33.078125 7.773438 -34.085938 10.578125 -34.796875 C 13.378906 -35.515625 16.191406 -35.875 19.015625 -35.875 Z M 18.5625 -7.234375 C 19.988281 -7.234375 21.242188 -7.578125 22.328125 -8.265625 C 23.410156 -8.960938 24.191406 -9.984375 24.671875 -11.328125 L 24.671875 -14.390625 L 19.34375 -14.390625 C 15.738281 -14.390625 13.9375 -13.195312 13.9375 -10.8125 C 13.9375 -9.726562 14.347656 -8.859375 15.171875 -8.203125 C 15.992188 -7.554688 17.125 -7.234375 18.5625 -7.234375 Z M 18.5625 -7.234375 "/></g></g></g><g fill="#1b2123" fill-opacity="1"><g transform="translate(217.753272, 196.72065)"><g><path d="M 26.953125 -35.875 C 31.335938 -35.875 34.863281 -34.570312 37.53125 -31.96875 C 40.207031 -29.363281 41.546875 -25.4375 41.546875 -20.1875 L 41.546875 0 L 29.171875 0 L 29.171875 -18.171875 C 29.171875 -22.984375 27.238281 -25.390625 23.375 -25.390625 C 21.25 -25.390625 19.546875 -24.691406 18.265625 -23.296875 C 16.984375 -21.910156 16.34375 -19.832031 16.34375 -17.0625 L 16.34375 0 L 3.96875 0 L 3.96875 -35.296875 L 15.75 -35.296875 L 15.75 -31.453125 C 17.144531 -32.878906 18.796875 -33.972656 20.703125 -34.734375 C 22.609375 -35.492188 24.691406 -35.875 26.953125 -35.875 Z M 26.953125 -35.875 "/></g></g></g><g clip-path="url(#3212fb5a75)"><g clip-path="url(#d874f822ef)"><g clip-path="url(#ca15abe2d9)"><path fill="#1b2123" d="M 156.042969 162.570312 C 149.792969 165.15625 143.363281 169.289062 137.941406 174.214844 C 135.246094 176.667969 132.863281 179.246094 130.863281 181.890625 L 129.839844 183.238281 L 125.585938 173.707031 C 123.703125 174.972656 119.570312 177.167969 115.164062 175.785156 C 113.027344 175.117188 111.605469 174.035156 110.816406 172.476562 C 109.78125 170.4375 108.394531 164.527344 114.007812 159.851562 C 118.109375 156.125 124.613281 155.257812 125.96875 155.113281 C 126.410156 154.835938 126.8125 154.535156 127.191406 154.191406 C 128.707031 152.8125 129.613281 150.957031 130.660156 148.808594 C 132.15625 145.746094 134.015625 141.929688 138.4375 137.914062 C 138.980469 137.417969 139.558594 136.925781 140.160156 136.445312 C 145.386719 132.257812 149.566406 130.742188 152.933594 131.820312 C 154.425781 132.300781 158.300781 134.929688 159.679688 139.914062 C 160.476562 142.550781 159.632812 145.347656 158.132812 148.152344 C 157.425781 149.476562 156.0625 151.53125 153.578125 153.785156 C 152.898438 154.402344 152.285156 154.898438 151.824219 155.253906 L 157.265625 162.0625 Z M 156.042969 162.570312 " fill-opacity="1" fill-rule="nonzero"/></g></g></g><g clip-path="url(#95adcac123)"><g clip-path="url(#94c5510dd5)"><g clip-path="url(#958c6f0e97)"><path fill="#ffffff" d="M 158.234375 140.230469 C 159.097656 143.09375 158.335938 145.808594 157 148.113281 C 154.609375 152.242188 150.382812 155.050781 150.382812 155.050781 L 155.648438 161.640625 C 153.230469 162.640625 150.792969 163.863281 148.394531 165.273438 C 141.40625 169.378906 134.777344 175.046875 130.058594 181.273438 L 125.988281 172.15625 C 125.988281 172.15625 120.859375 176.523438 115.453125 174.828125 C 112.011719 173.75 110 170.144531 111.742188 164.609375 C 114.308594 157.269531 126.304688 156.09375 126.304688 156.09375 C 132.28125 152.550781 130.6875 145.335938 140.792969 137.234375 C 150.863281 129.164062 155.828125 132.230469 158.234375 140.230469 Z M 158.234375 140.230469 " fill-opacity="1" fill-rule="nonzero"/></g></g></g><g clip-path="url(#99339b5480)"><g clip-path="url(#0dbe56f9c9)"><g clip-path="url(#7b4aec5a35)"><path fill="#ffffff" d="M 125.367188 172.316406 C 125.367188 172.316406 121.277344 174.359375 118.867188 174.109375 C 116.394531 173.851562 115.421875 172.722656 115.898438 172.683594 C 116.378906 172.640625 118.726562 173.382812 119.792969 172.28125 C 120.855469 171.183594 118.101562 170.421875 119.410156 170.015625 C 120.71875 169.613281 122.605469 169.988281 123.804688 170.597656 C 125.003906 171.207031 125.367188 172.316406 125.367188 172.316406 Z M 125.367188 172.316406 " fill-opacity="1" fill-rule="nonzero"/></g></g></g><g clip-path="url(#6e1ab35c34)"><g clip-path="url(#554b416873)"><g clip-path="url(#22c87a7960)"><path fill="#ffffff" d="M 129.710938 154.273438 C 129.710938 154.273438 132.339844 152.449219 134.121094 148.917969 C 135.902344 145.382812 137.554688 143.199219 138.304688 144.023438 C 139.050781 144.847656 139.105469 146.984375 136.34375 150.175781 C 133.582031 153.371094 129.710938 154.273438 129.710938 154.273438 Z M 129.710938 154.273438 " fill-opacity="1" fill-rule="nonzero"/></g></g></g><g clip-path="url(#5dd6cf1292)"><g clip-path="url(#55f1dcc9fa)"><g clip-path="url(#9da0885108)"><path fill="#ffffff" d="M 157.519531 144.578125 C 157.507812 144.65625 157.230469 146.753906 157 148.113281 C 154.609375 152.242188 150.382812 155.054688 150.382812 155.054688 L 155.648438 161.640625 C 153.230469 162.640625 150.792969 163.863281 148.394531 165.273438 C 148.78125 164.472656 148.886719 163.457031 148.308594 162.222656 C 146.597656 158.550781 144.75 156.914062 144.75 156.914062 C 144.75 156.914062 142.632812 161.785156 139.679688 163.730469 C 136.75 165.664062 130.339844 164.949219 130.242188 164.9375 C 130.296875 164.90625 133.289062 163.269531 134.679688 161.828125 C 136.082031 160.371094 136.082031 160.371094 136.082031 160.371094 C 133.789062 159.484375 131.667969 158.582031 132.949219 157.320312 C 132.949219 157.320312 140.191406 158.292969 145.949219 151.035156 C 151.707031 143.777344 149.628906 140.691406 152.382812 141.324219 C 155.136719 141.953125 153.613281 148.675781 155.183594 147.804688 C 156.722656 146.945312 157.492188 144.660156 157.519531 144.578125 Z M 157.519531 144.578125 " fill-opacity="1" fill-rule="nonzero"/></g></g></g><g clip-path="url(#4182bfc22e)"><g clip-path="url(#8e761b5e4e)"><g clip-path="url(#5dddfddd8e)"><path fill="#1b2123" d="M 122.871094 156.601562 C 122.871094 156.601562 126.898438 156.453125 130.058594 155.261719 C 133.214844 154.074219 134.683594 151.433594 134.683594 151.433594 C 134.683594 151.433594 131.882812 153.417969 129.710938 154.273438 C 127.535156 155.125 127.046875 155.195312 127.046875 155.195312 Z M 122.871094 156.601562 " fill-opacity="1" fill-rule="nonzero"/></g></g></g><g clip-path="url(#406ec44a59)"><g clip-path="url(#b3d1f9cd0d)"><g clip-path="url(#472985f3c6)"><path fill="#1b2123" d="M 148.734375 152.199219 C 148.8125 152.847656 150.375 155 151.609375 156.578125 L 151.824219 155.253906 C 150.894531 154.148438 150.128906 153.152344 149.496094 152.242188 Z M 148.734375 152.199219 " fill-opacity="1" fill-rule="nonzero"/></g></g></g><g clip-path="url(#048e675057)"><g clip-path="url(#a157c39b34)"><g clip-path="url(#378a4ce355)"><path fill="#1b2123" d="M 152.710938 144.605469 C 152.710938 144.605469 152.867188 148.777344 147.09375 153.410156 C 141.324219 158.039062 136.421875 158.792969 136.421875 158.792969 C 136.421875 158.792969 141.515625 158.960938 147.101562 155.070312 C 150.554688 152.546875 149.636719 153.207031 151.328125 150.90625 C 153.015625 148.605469 152.710938 144.605469 152.710938 144.605469 Z M 152.710938 144.605469 " fill-opacity="1" fill-rule="nonzero"/></g></g></g><g clip-path="url(#e455e1004e)"><g clip-path="url(#cdf2fed7df)"><g clip-path="url(#21998f1577)"><path fill="#1b2123" d="M 139.503906 158.167969 C 138.320312 161.519531 134.265625 164.9375 129.902344 165.816406 C 129.902344 165.816406 131.621094 166.386719 135.421875 164.457031 C 139.222656 162.523438 141.410156 157.492188 141.410156 157.492188 Z M 139.503906 158.167969 " fill-opacity="1" fill-rule="nonzero"/></g></g></g><g clip-path="url(#a77f56ec72)"><g clip-path="url(#c2bd796ea1)"><g clip-path="url(#8064ce140e)"><path fill="#1b2123" d="M 126.414062 173.386719 C 126.367188 173.089844 126.171875 172.144531 125.558594 171.46875 C 124.941406 170.792969 121.453125 170.484375 121.453125 170.484375 C 121.453125 170.484375 123.753906 171.3125 124.488281 171.878906 C 125.226562 172.445312 125.585938 173.707031 125.585938 173.707031 Z M 126.414062 173.386719 " fill-opacity="1" fill-rule="nonzero"/></g></g></g><path stroke-linecap="butt" transform="matrix(0.854584, 0, 0, 0.854584, 134.528448, 169.852254)" fill="none" stroke-linejoin="miter" d="M 51.449162 67.900444 L 51.449162 79.999711 L 9.43769 79.999711 L 9.43769 70.437313 L 29.636656 51.563919 C 31.593016 49.703548 32.904875 48.122004 33.567661 46.819288 C 34.235017 45.502858 34.564125 44.177287 34.564125 42.847144 C 34.564125 41.091905 33.974474 39.729766 32.795172 38.765299 C 31.615871 37.787118 29.897199 37.293457 27.639157 37.293457 C 25.632516 37.293457 23.795 37.74598 22.126608 38.651025 C 20.458216 39.542358 19.082365 40.835933 18.003624 42.527179 L 6.65399 36.205575 C 8.761191 32.71795 11.718587 29.966247 15.517035 27.959606 C 19.333766 25.952965 23.831567 24.947359 29.015008 24.947359 C 33.128851 24.947359 36.767316 25.619287 39.930403 26.963142 C 43.093491 28.293284 45.557225 30.208507 47.326178 32.704238 C 49.09513 35.199969 49.981891 38.093371 49.981891 41.379874 C 49.981891 44.305273 49.351102 47.061547 48.098666 49.66241 C 46.841658 52.258701 44.414491 55.202384 40.812594 58.488887 L 30.63312 67.900444 Z M 51.449162 67.900444 " stroke="#000000" stroke-width="5.782402" stroke-opacity="1" stroke-miterlimit="4"/><g fill="#d9d9d9" fill-opacity="1"><g transform="translate(140.617362, 238.218997)"><g><path d="M 37.875 -10.34375 L 37.875 0 L 1.96875 0 L 1.96875 -8.171875 L 19.234375 -24.3125 C 20.898438 -25.882812 22.019531 -27.226562 22.59375 -28.34375 C 23.164062 -29.46875 23.453125 -30.601562 23.453125 -31.75 C 23.453125 -33.238281 22.945312 -34.398438 21.9375 -35.234375 C 20.925781 -36.078125 19.453125 -36.5 17.515625 -36.5 C 15.804688 -36.5 14.238281 -36.113281 12.8125 -35.34375 C 11.382812 -34.570312 10.207031 -33.460938 9.28125 -32.015625 L -0.390625 -37.421875 C 1.410156 -40.398438 3.9375 -42.742188 7.1875 -44.453125 C 10.4375 -46.171875 14.273438 -47.03125 18.703125 -47.03125 C 22.222656 -47.03125 25.332031 -46.457031 28.03125 -45.3125 C 30.726562 -44.175781 32.832031 -42.539062 34.34375 -40.40625 C 35.863281 -38.28125 36.625 -35.8125 36.625 -33 C 36.625 -30.5 36.085938 -28.140625 35.015625 -25.921875 C 33.941406 -23.703125 31.863281 -21.1875 28.78125 -18.375 L 20.09375 -10.34375 Z M 37.875 -10.34375 "/></g></g></g><g fill="#1b2123" fill-opacity="1"><g transform="translate(168.825873, 238.715024)"><g><path d="M 40.046875 -17.578125 C 40.046875 -17.492188 39.976562 -16.472656 39.84375 -14.515625 L 14.1875 -14.515625 C 14.707031 -12.691406 15.71875 -11.289062 17.21875 -10.3125 C 18.71875 -9.34375 20.597656 -8.859375 22.859375 -8.859375 C 24.546875 -8.859375 26.007812 -9.09375 27.25 -9.5625 C 28.488281 -10.039062 29.734375 -10.828125 30.984375 -11.921875 L 37.5 -5.140625 C 34.070312 -1.316406 29.0625 0.59375 22.46875 0.59375 C 18.34375 0.59375 14.71875 -0.1875 11.59375 -1.75 C 8.46875 -3.320312 6.046875 -5.492188 4.328125 -8.265625 C 2.617188 -11.046875 1.765625 -14.191406 1.765625 -17.703125 C 1.765625 -21.179688 2.597656 -24.296875 4.265625 -27.046875 C 5.929688 -29.804688 8.238281 -31.96875 11.1875 -33.53125 C 14.144531 -35.09375 17.46875 -35.875 21.15625 -35.875 C 24.675781 -35.875 27.867188 -35.144531 30.734375 -33.6875 C 33.597656 -32.238281 35.863281 -30.132812 37.53125 -27.375 C 39.207031 -24.625 40.046875 -21.359375 40.046875 -17.578125 Z M 21.21875 -27.078125 C 19.3125 -27.078125 17.71875 -26.535156 16.4375 -25.453125 C 15.15625 -24.367188 14.34375 -22.894531 14 -21.03125 L 28.453125 -21.03125 C 28.109375 -22.894531 27.296875 -24.367188 26.015625 -25.453125 C 24.734375 -26.535156 23.132812 -27.078125 21.21875 -27.078125 Z M 21.21875 -27.078125 "/></g></g></g><g fill="#1b2123" fill-opacity="1"><g transform="translate(205.670187, 238.715024)"><g><path d="M 19.015625 -35.875 C 24.867188 -35.875 29.335938 -34.535156 32.421875 -31.859375 C 35.503906 -29.191406 37.046875 -25.101562 37.046875 -19.59375 L 37.046875 0 L 25.515625 0 L 25.515625 -4.5625 C 23.742188 -1.125 20.273438 0.59375 15.109375 0.59375 C 12.367188 0.59375 10 0.113281 8 -0.84375 C 6.007812 -1.800781 4.503906 -3.09375 3.484375 -4.71875 C 2.460938 -6.34375 1.953125 -8.195312 1.953125 -10.28125 C 1.953125 -13.625 3.234375 -16.21875 5.796875 -18.0625 C 8.359375 -19.90625 12.304688 -20.828125 17.640625 -20.828125 L 24.671875 -20.828125 C 24.453125 -24.566406 21.957031 -26.4375 17.1875 -26.4375 C 15.5 -26.4375 13.785156 -26.164062 12.046875 -25.625 C 10.304688 -25.082031 8.832031 -24.332031 7.625 -23.375 L 3.453125 -31.765625 C 5.398438 -33.078125 7.773438 -34.085938 10.578125 -34.796875 C 13.378906 -35.515625 16.191406 -35.875 19.015625 -35.875 Z M 18.5625 -7.234375 C 19.988281 -7.234375 21.242188 -7.578125 22.328125 -8.265625 C 23.410156 -8.960938 24.191406 -9.984375 24.671875 -11.328125 L 24.671875 -14.390625 L 19.34375 -14.390625 C 15.738281 -14.390625 13.9375 -13.195312 13.9375 -10.8125 C 13.9375 -9.726562 14.347656 -8.859375 15.171875 -8.203125 C 15.992188 -7.554688 17.125 -7.234375 18.5625 -7.234375 Z M 18.5625 -7.234375 "/></g></g></g><g fill="#1b2123" fill-opacity="1"><g transform="translate(241.603128, 238.715024)"><g><path d="M 28.328125 -1.4375 C 27.285156 -0.78125 26.015625 -0.28125 24.515625 0.0625 C 23.015625 0.414062 21.421875 0.59375 19.734375 0.59375 C 15.128906 0.59375 11.585938 -0.535156 9.109375 -2.796875 C 6.640625 -5.054688 5.40625 -8.421875 5.40625 -12.890625 L 5.40625 -24.734375 L 0.265625 -24.734375 L 0.265625 -33.984375 L 5.40625 -33.984375 L 5.40625 -43.171875 L 17.78125 -43.171875 L 17.78125 -33.984375 L 25.84375 -33.984375 L 25.84375 -24.734375 L 17.78125 -24.734375 L 17.78125 -13.015625 C 17.78125 -11.765625 18.113281 -10.78125 18.78125 -10.0625 C 19.457031 -9.34375 20.359375 -8.984375 21.484375 -8.984375 C 22.921875 -8.984375 24.179688 -9.351562 25.265625 -10.09375 Z M 28.328125 -1.4375 "/></g></g></g></svg>